<svg width="73" height="73" viewBox="0 0 73 73" fill="none" xmlns="http://www.w3.org/2000/svg">
<path d="M62.2628 17.1246C63.4491 18.3108 63.4491 20.1966 62.2628 21.3829L27.7703 55.8754C27.4919 56.1572 27.1604 56.3809 26.7949 56.5336C26.4294 56.6863 26.0373 56.7649 25.6412 56.7649C25.2451 56.7649 24.8529 56.6863 24.4874 56.5336C24.1219 56.3809 23.7904 56.1572 23.512 55.8754L10.737 43.1004C10.4552 42.822 10.2315 42.4905 10.0788 42.125C9.92611 41.7595 9.84748 41.3673 9.84748 40.9712C9.84748 40.5751 9.92611 40.183 10.0788 39.8175C10.2315 39.452 10.4552 39.1204 10.737 38.8421C11.0154 38.5603 11.3469 38.3366 11.7124 38.1839C12.0779 38.0312 12.4701 37.9526 12.8662 37.9526C13.2623 37.9526 13.6544 38.0312 14.0199 38.1839C14.3854 38.3366 14.7169 38.5603 14.9953 38.8421L25.6412 49.4879L58.0045 17.1246C58.2829 16.8428 58.6144 16.6191 58.9799 16.4664C59.3454 16.3137 59.7375 16.2351 60.1336 16.2351C60.5297 16.2351 60.9219 16.3137 61.2874 16.4664C61.6529 16.6191 61.9844 16.8428 62.2628 17.1246ZM55.8449 10.6762L25.6412 40.88L17.1549 32.3937C14.7824 30.0212 10.9195 30.0212 8.54699 32.3937L4.28865 36.6521C1.91615 39.0246 1.91615 42.8875 4.28865 45.26L21.322 62.2933C23.6945 64.6658 27.5574 64.6658 29.9299 62.2933L68.7111 23.5425C71.0836 21.17 71.0836 17.3071 68.7111 14.9346L64.4528 10.6762C62.0499 8.30373 58.2174 8.30373 55.8449 10.6762Z" fill="#0068BD"/>
</svg>
