<svg width="62" height="62" viewBox="0 0 62 62" fill="none" xmlns="http://www.w3.org/2000/svg">
<g clip-path="url(#clip0_31_316)">
<path d="M6.64286 5.41551H54.1298V0H0V54.1298H5.41551V6.64286C5.41551 5.95959 5.95959 5.41551 6.64286 5.41551Z" fill="#0068BD"/>
<path d="M30.0004 31.1266H28.811V33.9862H30.0004C30.9494 33.9862 31.7212 33.3409 31.7212 32.5564C31.7086 31.7719 30.9368 31.1266 30.0004 31.1266Z" fill="#0068BD"/>
<path d="M15.6011 35.8588H18.3215L16.955 32.8979L15.6011 35.8588Z" fill="#0068BD"/>
<path d="M42.2106 31.1266H41.0212V33.9862H42.2106C43.1596 33.9862 43.9314 33.3409 43.9314 32.5564C43.9314 31.7719 43.1596 31.1266 42.2106 31.1266Z" fill="#0068BD"/>
<path d="M7.87012 7.87024V62H61.9999V7.87024H7.87012ZM21.6999 40.5151C21.5607 40.5531 20.7256 40.8821 20.2195 39.9711L19.1946 37.7568H14.7154L13.6905 39.9711C13.4628 40.4645 12.8048 40.7049 12.2101 40.5151C11.6154 40.3253 11.3244 39.7813 11.5522 39.2878L15.8795 29.8992C16.044 29.5323 16.4742 29.2919 16.955 29.2919C17.4232 29.2919 17.8534 29.5323 18.0305 29.8992L22.3579 39.2878C22.5856 39.7813 22.2946 40.338 21.6999 40.5151ZM30.0003 35.8841H28.8109V39.6927C28.8109 40.2241 28.2922 40.6417 27.6595 40.6417C27.0269 40.6417 26.5081 40.2115 26.5081 39.6927V30.1649C26.5081 29.6335 27.0269 29.216 27.6595 29.216H29.9877C32.202 29.216 33.9987 30.709 33.9987 32.5437C33.9987 34.3911 32.202 35.8841 30.0003 35.8841ZM42.2105 35.8841H41.0211V39.6927C41.0211 40.2241 40.5024 40.6417 39.8697 40.6417C39.2371 40.6417 38.7183 40.2115 38.7183 39.6927V30.1649C38.7183 29.6335 39.2371 29.216 39.8697 29.216H42.1979C44.4122 29.216 46.2089 30.709 46.2089 32.5437C46.2215 34.3911 44.4248 35.8841 42.2105 35.8841ZM54.3828 40.6543C53.282 40.6543 52.2191 40.2747 51.4599 39.6041C51.0297 39.2245 51.0424 38.6172 51.5105 38.2629C51.966 37.896 52.6999 37.9213 53.1301 38.3009C53.4591 38.5919 53.902 38.7564 54.3828 38.7564C55.3317 38.7564 56.1036 38.1111 56.1036 37.3266C56.1036 36.5421 55.3317 35.8968 54.3828 35.8968C52.1685 35.8968 50.3717 34.4037 50.3717 32.569C50.3717 30.7343 52.1685 29.2413 54.3828 29.2413C55.4836 29.2413 56.5464 29.6209 57.3056 30.2915C57.7358 30.6711 57.7232 31.2784 57.255 31.6327C56.7995 31.9996 56.0656 31.9743 55.6354 31.5947C55.3064 31.3037 54.8636 31.1392 54.3828 31.1392C53.4338 31.1392 52.662 31.7845 52.662 32.569C52.662 33.3535 53.4338 33.9988 54.3828 33.9988C56.5971 33.9988 58.3938 35.4919 58.3938 37.3266C58.3938 39.1613 56.5971 40.6543 54.3828 40.6543Z" fill="#0068BD"/>
</g>
<defs>
<clipPath id="clip0_31_316">
<rect width="62" height="62" fill="white"/>
</clipPath>
</defs>
</svg>
