<svg width="61" height="61" viewBox="0 0 61 61" fill="none" xmlns="http://www.w3.org/2000/svg">
<path d="M31.9956 26.3725L39.1845 33.5614C39.8049 34.1818 39.8049 35.1876 39.1845 35.8079C38.5642 36.4283 37.5583 36.4283 36.938 35.8079L32.4051 31.2752L32.4064 48.2916C32.4064 49.1141 31.7813 49.7906 30.9802 49.872L30.8178 49.8802C29.9953 49.8802 29.3188 49.2551 29.2375 48.454L29.2293 48.2916L29.2281 31.3845L24.8067 35.8079C24.1863 36.4283 23.1805 36.4283 22.5601 35.8079C21.9398 35.1876 21.9398 34.1818 22.5601 33.5614L29.7491 26.3725C30.3694 25.7521 31.3752 25.7521 31.9956 26.3725ZM30.5015 11.4601C38.5549 11.4601 43.1234 16.7907 43.7878 23.2283L43.9911 23.2283C49.1737 23.2283 53.3751 27.4188 53.3751 32.5881C53.3751 37.7573 49.1737 41.9478 43.9911 41.9478L37.172 41.9374C36.3495 41.9374 35.673 41.3124 35.5917 40.5113L35.5834 40.3489C35.5834 39.5264 36.2085 38.8499 37.0096 38.7686L37.172 38.7604L44.2304 38.7769C47.527 38.7769 50.1995 36.0906 50.1995 32.7768C50.1995 29.4631 47.527 26.7767 44.2305 26.7767L42.4251 26.7768C41.4703 26.7768 40.6365 26.0243 40.6365 25.0653C40.6365 18.9352 35.9166 14.631 30.5015 14.631C25.0864 14.631 20.3666 19.0128 20.3666 25.0653C20.3666 26.0243 19.5327 26.7768 18.578 26.7768L16.7726 26.7767C13.476 26.7767 10.8036 29.4631 10.8036 32.7768C10.8036 36.0906 13.476 38.7769 16.7726 38.7769L23.8282 38.7604C24.7056 38.7604 25.4168 39.4716 25.4168 40.3489C25.4168 41.1714 24.7917 41.8479 23.9907 41.9292L23.8282 41.9374L17.012 41.9478C11.8293 41.9478 7.62793 37.7573 7.62793 32.5881C7.62793 27.5222 11.6629 23.3963 16.7023 23.2333L17.2152 23.2283C17.8835 16.7484 22.4482 11.4601 30.5015 11.4601Z" fill="#0068BD"/>
</svg>
