<svg width="74" height="74" viewBox="0 0 74 74" fill="none" xmlns="http://www.w3.org/2000/svg">
<g clip-path="url(#clip0_31_191)">
<path d="M36.9997 23.0409C42.2712 23.0409 46.5597 18.7523 46.5597 13.4809C46.5597 8.20957 42.2711 3.9209 36.9997 3.9209C31.7282 3.9209 27.4397 8.20957 27.4397 13.4809C27.4397 18.7521 31.7282 23.0409 36.9997 23.0409ZM36.9997 8.53593C39.7262 8.53593 41.9444 10.754 41.9444 13.4806C41.9444 16.2072 39.7263 18.4253 36.9997 18.4253C34.2731 18.4253 32.055 16.2072 32.055 13.4806C32.055 10.7542 34.2733 8.53593 36.9997 8.53593Z" fill="#0068BD"/>
<path d="M21.5824 46.0673H52.4168C53.6913 46.0673 54.7246 45.034 54.7246 43.7595C54.7246 33.9859 46.7732 26.0347 36.9997 26.0347C27.2262 26.0347 19.2747 33.9859 19.2747 43.7595C19.2747 45.034 20.3079 46.0673 21.5824 46.0673ZM49.9056 41.4518H24.0935C26.6497 27.1156 47.352 27.1301 49.9056 41.4518Z" fill="#0068BD"/>
<path d="M46.3133 54.9252L41.3079 54.1978L39.0694 49.6622C38.2246 47.9506 35.7758 47.9494 34.9306 49.6622L32.6921 54.1978L27.6867 54.9252C25.7978 55.1997 25.0402 57.5284 26.4077 58.8615L30.0296 62.392L29.1745 67.3772C28.8518 69.2584 30.8324 70.6988 32.5229 69.8099L36.9999 67.4564L41.4769 69.8099C43.157 70.6933 45.1501 69.2712 44.8252 67.3772L43.9702 62.392L47.592 58.8615C48.9591 57.5291 48.2033 55.2 46.3133 54.9252ZM39.4859 63.5487C36.8114 62.1428 37.0241 62.2292 34.5144 63.5487C34.9955 60.7437 35.1477 60.9352 32.978 58.8203C35.7956 58.4109 35.6592 58.6151 37.0002 55.898C38.3372 58.6073 38.2009 58.4104 41.0223 58.8203C38.8588 60.929 39.0039 60.7387 39.4859 63.5487Z" fill="#0068BD"/>
<path d="M20.603 54.9252L15.5976 54.1978L13.3591 49.6622C12.5143 47.9506 10.0655 47.9494 9.22026 49.6622L6.98191 54.1978L1.9765 54.9252C0.0876205 55.1997 -0.670012 57.5284 0.697542 58.8614L4.3195 62.3918L3.46445 67.377C3.14171 69.2582 5.12237 70.6986 6.8128 69.8098L11.2898 67.4561L15.7668 69.8098C17.4468 70.6931 19.4401 69.2711 19.1152 67.377L18.2601 62.3918L21.8819 58.8614C23.2488 57.5291 22.493 55.2 20.603 54.9252ZM13.7756 63.5487C11.1635 62.1755 11.4161 62.1755 8.80401 63.5487C9.2853 60.7436 9.43735 60.9354 7.26764 58.8203C10.0851 58.4109 9.94884 58.6152 11.2898 55.898C12.6269 58.6073 12.4906 58.4103 15.312 58.8203C13.2741 60.8068 13.2632 60.5624 13.7756 63.5487Z" fill="#0068BD"/>
<path d="M72.0236 54.9252L67.0182 54.1978L64.7799 49.6622C63.9351 47.9506 61.4863 47.9494 60.6411 49.6622L58.4026 54.1978L53.3972 54.9252C51.5083 55.1997 50.7506 57.5284 52.1182 58.8615L55.7403 62.392L54.8852 67.3772C54.5625 69.2584 56.543 70.6986 58.2336 69.8099L62.7106 67.4562L67.1876 69.8099C68.8678 70.6933 70.8609 69.2712 70.536 67.3772L69.6809 62.392L73.3027 58.8615C74.6693 57.5291 73.9137 55.2 72.0236 54.9252ZM65.1964 63.5487C62.5216 62.1425 62.7476 62.2223 60.2248 63.5487C60.706 60.7437 60.8581 60.9352 58.6884 58.8203C61.6782 58.3859 61.449 58.4547 62.7106 55.898C64.0475 58.6073 63.9112 58.4103 66.7328 58.8203C64.5691 60.9292 64.7144 60.7388 65.1964 63.5487Z" fill="#0068BD"/>
</g>
<defs>
<clipPath id="clip0_31_191">
<rect width="74" height="74" fill="white"/>
</clipPath>
</defs>
</svg>
