<svg width="73" height="73" viewBox="0 0 73 73" fill="none" xmlns="http://www.w3.org/2000/svg">
<g clip-path="url(#clip0_31_206)">
<path d="M2.43333 25.55C2.43333 22.1433 5.11 19.4667 8.51667 19.4667H10.0983L13.505 28.47C13.6267 28.835 14.1133 29.2 14.6 29.2C15.0867 29.2 15.5733 28.835 15.9383 28.47L19.345 19.4667H20.6833C24.09 19.4667 26.7667 22.1433 26.7667 25.55V42.5833H29.2V25.55C29.2 20.805 25.4283 17.0333 20.6833 17.0333H8.51667C3.77167 17.0333 0 20.805 0 25.55V42.5833H2.43333V25.55ZM14.7217 24.5767L12.775 19.4667H16.6683L14.7217 24.5767Z" fill="#0068BD"/>
<path d="M15.8166 31.6333H13.3833V34.0666H15.8166V31.6333Z" fill="#0068BD"/>
<path d="M15.8166 36.5H13.3833V38.9333H15.8166V36.5Z" fill="#0068BD"/>
<path d="M13.3834 15.8167H15.8167C19.2234 15.8167 21.9 13.14 21.9 9.73333V6.08333C21.9 2.67667 19.2234 0 15.8167 0H13.3834C9.97672 0 7.30005 2.67667 7.30005 6.08333V9.73333C7.30005 13.14 9.97672 15.8167 13.3834 15.8167ZM9.73338 6.08333C9.73338 4.015 11.315 2.43333 13.3834 2.43333H15.8167C17.885 2.43333 19.4667 4.015 19.4667 6.08333V9.73333C19.4667 11.8017 17.885 13.3833 15.8167 13.3833H13.3834C11.315 13.3833 9.73338 11.8017 9.73338 9.73333V6.08333Z" fill="#0068BD"/>
<path d="M64.4834 17.0333H52.3167C47.5717 17.0333 43.8 20.805 43.8 25.55V42.5833H46.2334V25.55C46.2334 22.1433 48.91 19.4667 52.3167 19.4667H53.8984L57.305 28.47C57.4267 28.835 57.9134 29.2 58.4 29.2C58.8867 29.2 59.3734 28.835 59.7384 28.47L63.1451 19.4667H64.4834C67.89 19.4667 70.5667 22.1433 70.5667 25.55V42.5833H73V25.55C73 20.805 69.2284 17.0333 64.4834 17.0333ZM58.5217 24.5767L56.575 19.4667H60.4684L58.5217 24.5767Z" fill="#0068BD"/>
<path d="M59.6167 31.6333H57.1833V34.0666H59.6167V31.6333Z" fill="#0068BD"/>
<path d="M59.6167 36.5H57.1833V38.9333H59.6167V36.5Z" fill="#0068BD"/>
<path d="M57.1834 15.8167H59.6168C63.0234 15.8167 65.7001 13.14 65.7001 9.73333V6.08333C65.7001 2.67667 63.0234 0 59.6168 0H57.1834C53.7768 0 51.1001 2.67667 51.1001 6.08333V9.73333C51.1001 13.14 53.7768 15.8167 57.1834 15.8167ZM53.5334 6.08333C53.5334 4.015 55.1151 2.43333 57.1834 2.43333H59.6168C61.6851 2.43333 63.2668 4.015 63.2668 6.08333V9.73333C63.2668 11.8017 61.6851 13.3833 59.6168 13.3833H57.1834C55.1151 13.3833 53.5334 11.8017 53.5334 9.73333V6.08333Z" fill="#0068BD"/>
<path d="M35.405 28.47C35.5266 28.835 36.0133 29.2 36.5 29.2C36.9866 29.2 37.4733 28.835 37.8383 28.47L41.245 19.4667H43.8V17.0333H29.2V19.4667H31.9983L35.405 28.47ZM36.6216 24.5767L34.675 19.4667H38.5683L36.6216 24.5767Z" fill="#0068BD"/>
<path d="M37.7168 31.6333H35.2834V34.0666H37.7168V31.6333Z" fill="#0068BD"/>
<path d="M37.7168 36.5H35.2834V38.9333H37.7168V36.5Z" fill="#0068BD"/>
<path d="M35.2833 15.8167H37.7166C41.1233 15.8167 43.8 13.14 43.8 9.73333V6.08333C43.8 2.67667 41.1233 0 37.7166 0H35.2833C31.8766 0 29.2 2.67667 29.2 6.08333V9.73333C29.2 13.14 31.8766 15.8167 35.2833 15.8167ZM31.6333 6.08333C31.6333 4.015 33.215 2.43333 35.2833 2.43333H37.7166C39.785 2.43333 41.3666 4.015 41.3666 6.08333V9.73333C41.3666 11.8017 39.785 13.3833 37.7166 13.3833H35.2833C33.215 13.3833 31.6333 11.8017 31.6333 9.73333V6.08333Z" fill="#0068BD"/>
<path d="M71.7833 66.9167H66.9167V26.7667H64.4833V66.9167H59.6167V43.8001H57.1833V66.9167H52.3167V26.7667H49.8833V66.9167H45.0167V48.6667H42.5833V66.9167H37.7167V43.8001H35.2833V66.9167H30.4167V48.6667H27.9833V66.9167H23.1167V26.7667H20.6833V66.9167H15.8167V43.8001H13.3833V66.9167H8.51667V26.7667H6.08333V66.9167H1.21667C0.486667 66.9167 0 67.4034 0 68.1334V73.0001H2.43333V69.3501H7.3H14.6H21.9H29.2H36.5H43.8H51.1H58.4H65.7H70.5667V73.0001H73V68.1334C73 67.4034 72.5133 66.9167 71.7833 66.9167Z" fill="#0068BD"/>
</g>
<defs>
<clipPath id="clip0_31_206">
<rect width="73" height="73" fill="white"/>
</clipPath>
</defs>
</svg>
