<svg width="67" height="67" viewBox="0 0 67 67" fill="none" xmlns="http://www.w3.org/2000/svg">
<g clip-path="url(#clip0_31_203)">
<path d="M62.3099 55.1448L49.766 21.9984C49.5926 21.5413 49.3307 21.1229 48.9955 20.767C48.6603 20.4111 48.2583 20.1248 47.8124 19.9243C47.3665 19.7238 46.8855 19.6131 46.3968 19.5986C45.9081 19.584 45.4214 19.6659 44.9644 19.8395L39.0833 22.0542V16.6012C39.0833 15.6534 38.7068 14.7446 38.0366 14.0744C37.3665 13.4043 36.4576 13.0278 35.5099 13.0278H26.0555V9.15671C26.0555 8.209 25.679 7.30011 25.0089 6.62998C24.3387 5.95985 23.4298 5.58337 22.4821 5.58337H9.30547C8.31828 5.58337 7.37152 5.97554 6.67347 6.67359C5.97541 7.37164 5.58325 8.3184 5.58325 9.3056V59.5556C5.58325 60.0492 5.77933 60.5226 6.12836 60.8716C6.47738 61.2206 6.95077 61.4167 7.44436 61.4167H37.2221C37.7157 61.4167 38.1891 61.2206 38.5381 60.8716C38.8872 60.5226 39.0833 60.0492 39.0833 59.5556V35.8637L48.3888 60.4489C48.4755 60.6775 48.6065 60.8867 48.7741 61.0646C48.9417 61.2426 49.1427 61.3857 49.3656 61.486C49.5886 61.5862 49.8291 61.6415 50.0734 61.6488C50.3178 61.6561 50.5611 61.6152 50.7896 61.5284L61.2305 57.5456C61.459 57.4589 61.6682 57.3279 61.8462 57.1603C62.0241 56.9927 62.1673 56.7917 62.2675 56.5688C62.3678 56.3458 62.4231 56.1053 62.4304 55.861C62.4376 55.6166 62.3967 55.3733 62.3099 55.1448ZM22.3333 16.4337V57.6945H9.30547V9.3056H22.3333V16.4337ZM35.361 57.6945H26.0555V16.75H35.361V57.6945ZM51.1991 57.2292L39.3252 25.9067L46.2858 23.2639L58.1783 54.5864L51.1991 57.2292Z" fill="#0068BD"/>
</g>
<defs>
<clipPath id="clip0_31_203">
<rect width="67" height="67" fill="white"/>
</clipPath>
</defs>
</svg>
