<svg width="60" height="60" viewBox="0 0 60 60" fill="none" xmlns="http://www.w3.org/2000/svg">
<g clip-path="url(#clip0_31_257)">
<path d="M59.6525 10.765V49.175C59.6525 50.52 59.26 51.7142 58.475 52.7575C57.6883 53.8025 56.6442 54.5108 55.3425 54.8825L38.1225 59.8175C37.8958 59.8792 37.6533 59.925 37.395 59.955C37.1367 59.9867 36.8933 60.0025 36.665 60.0025C36.0033 60.0025 35.4033 59.915 34.865 59.74C34.3283 59.5633 33.7808 59.32 33.2225 59.01L21.96 52.65C21.5467 52.4217 21.2208 52.1167 20.9825 51.735C20.7442 51.3517 20.625 50.9225 20.625 50.4475C20.625 49.7242 20.8783 49.1092 21.385 48.6025C21.8917 48.0942 22.5075 47.84 23.2325 47.84H37.8125V12.41L26.8625 16.3175C25.9725 16.6292 25.2583 17.1775 24.72 17.9625C24.1833 18.7492 23.915 19.6075 23.915 20.5375V40.735C23.915 41.5617 23.7083 42.3217 23.295 43.015C22.88 43.7083 22.3108 44.2508 21.5875 44.6425L16.4075 47.4675C15.9308 47.7142 15.455 47.8375 14.98 47.8375C14.1517 47.8375 13.4483 47.5483 12.87 46.97C12.29 46.3917 12 45.6883 12 44.86V16.41C12 15.3767 12.275 14.385 12.825 13.435C13.3717 12.4817 14.1 11.7467 15.01 11.23L33.5025 0.7125C33.9158 0.485833 34.3608 0.310833 34.8375 0.1875C35.3125 0.0625 35.7875 0 36.2625 0C36.6158 0 36.9325 0.0258333 37.2125 0.0775C37.4908 0.129167 37.795 0.206667 38.125 0.31L55.345 5.0575C55.985 5.2425 56.5683 5.51667 57.095 5.88C57.6233 6.24167 58.0792 6.675 58.4625 7.18C58.8458 7.68833 59.14 8.24667 59.345 8.855C59.5533 9.46667 59.6575 10.1033 59.6575 10.765H59.6525ZM55.685 49.175V10.765C55.685 10.31 55.5508 9.91167 55.2825 9.57C55.0125 9.23 54.6608 8.9975 54.2275 8.8725L45.7575 6.5475C45.0958 6.36083 44.4342 6.16917 43.7725 5.9725C43.1108 5.77583 42.4492 5.595 41.7875 5.43V54.6325L54.2275 51.065C54.6608 50.9417 55.0125 50.7083 55.2825 50.365C55.5508 50.025 55.685 49.6275 55.685 49.1725V49.175Z" fill="#0068BD"/>
</g>
<defs>
<clipPath id="clip0_31_257">
<rect width="60" height="60" fill="white"/>
</clipPath>
</defs>
</svg>
