<svg width="61" height="61" viewBox="0 0 61 61" fill="none" xmlns="http://www.w3.org/2000/svg">
<path d="M51.5654 25.5463C53.9616 25.5463 55.9041 23.6038 55.9041 21.2076C55.9041 18.8115 53.9616 16.869 51.5654 16.869C49.1693 16.869 47.2268 18.8115 47.2268 21.2076C47.2268 23.6038 49.1693 25.5463 51.5654 25.5463Z" fill="#0068BD"/>
<path d="M47.2268 29.2622H55.9015V38.5545C55.9015 40.9488 53.9571 42.8906 51.5628 42.8906H47.2268V29.2622ZM5.09863 10.675V50.325L33.5983 55.3549V5.64502L5.09863 10.675ZM26.164 24.4279L21.2077 24.5525V39.1721H17.4893V24.799L12.5355 25.0481V21.7033L26.164 20.9611V24.4279ZM36.0739 25.5437V46.6091H41.0302C43.0838 46.6091 44.7486 44.9443 44.7486 42.8931V25.5437H36.0739ZM39.7924 13.1531C38.303 13.1531 36.9838 13.8241 36.0739 14.8636V21.3576C36.9813 22.3971 38.303 23.0681 39.7924 23.0681C41.1072 23.0681 42.3682 22.5458 43.2979 21.6161C44.2276 20.6864 44.7499 19.4254 44.7499 18.1106C44.7499 16.7958 44.2276 15.5348 43.2979 14.6051C42.3682 13.6754 41.1072 13.1531 39.7924 13.1531Z" fill="#0068BD"/>
</svg>
