<svg width="59" height="59" viewBox="0 0 59 59" fill="none" xmlns="http://www.w3.org/2000/svg">
<g clip-path="url(#clip0_31_280)">
<path d="M54.2244 15.1915C54.1941 13.5986 54.1652 12.0938 54.1652 10.638C54.1652 9.49751 53.2408 8.57288 52.1 8.57288C43.2681 8.57288 36.5437 6.03467 30.9386 0.58487C30.1367 -0.194931 28.8607 -0.194656 28.0592 0.58487C22.4546 6.03467 15.7313 8.57288 6.89992 8.57288C5.75941 8.57288 4.83477 9.49751 4.83477 10.638C4.83477 12.0941 4.80613 13.5995 4.77557 15.1926C4.49251 30.0166 4.10481 50.3187 28.8225 58.8863C29.0417 58.9623 29.2702 59.0003 29.4987 59.0003C29.7273 59.0003 29.9561 58.9623 30.175 58.8863C54.8946 50.3184 54.5074 30.0158 54.2244 15.1915ZM29.499 54.7436C8.30037 47.0428 8.62088 30.1733 8.90532 15.2714C8.92239 14.3771 8.93891 13.5102 8.95048 12.6605C17.2221 12.3114 23.8366 9.80481 29.499 4.87212C35.1619 9.80481 41.7776 12.3116 50.0497 12.6605C50.0613 13.51 50.0778 14.3762 50.0949 15.27C50.3791 30.1724 50.6993 47.0425 29.499 54.7436Z" fill="#0068BD"/>
<path d="M36.6104 22.3262L26.6429 32.2932L22.3895 28.0398C21.583 27.2335 20.2754 27.2335 19.4691 28.0398C18.6626 28.8466 18.6626 30.1539 19.4691 30.9604L25.1827 36.674C25.5858 37.0771 26.1145 37.2787 26.6429 37.2787C27.1713 37.2787 27.7 37.0771 28.1031 36.674L39.5306 25.2469C40.3374 24.4403 40.3374 23.1327 39.5308 22.3265C38.7246 21.5199 37.417 21.5197 36.6104 22.3262Z" fill="#0068BD"/>
</g>
<defs>
<clipPath id="clip0_31_280">
<rect width="59" height="59" fill="white"/>
</clipPath>
</defs>
</svg>
