<svg width="74" height="74" viewBox="0 0 74 74" fill="none" xmlns="http://www.w3.org/2000/svg">
<g clip-path="url(#clip0_31_67)">
<path d="M70.9167 49.3333V12.3333C70.9167 8.92847 68.1549 6.16663 64.75 6.16663H9.25C5.84513 6.16663 3.08329 8.92847 3.08329 12.3333V49.3333C1.38042 49.3333 0 50.7139 0 52.4168V61.6668C0 65.0716 2.76185 67.8335 6.16671 67.8335H67.8334C71.2383 67.8335 74.0001 65.0716 74.0001 61.6668V52.4168C74 50.7139 72.6196 49.3333 70.9167 49.3333ZM9.25 12.3333H64.75V49.3333H46.25C45.4322 49.3333 44.648 49.6582 44.0697 50.2364L41.8895 52.4166H32.1105L29.9303 50.2364C29.352 49.6581 28.5678 49.3333 27.75 49.3333H9.25V12.3333ZM67.8333 61.6668H6.16671V55.5001H26.4729L28.6532 57.6803C29.2314 58.2586 30.0157 58.5833 30.8334 58.5833H43.1667C43.9845 58.5833 44.7687 58.2584 45.347 57.6803L47.5272 55.5001H67.8334V61.6668H67.8333Z" fill="#0068BD"/>
<path d="M30.941 33.4928C30.941 31.5565 29.3655 29.984 27.4323 29.984H26.2605H25.092C24.4475 29.984 23.9235 29.4567 23.9235 28.8123C23.9235 28.1678 24.4477 27.6437 25.092 27.6437H26.9482C27.7005 27.6437 28.4097 27.9367 28.9432 28.47C29.3995 28.9263 30.1395 28.9263 30.5959 28.47C31.0554 28.0137 31.0554 27.2737 30.5959 26.8173C29.6216 25.8398 28.3266 25.3033 26.9484 25.3033H25.0921C23.1559 25.3033 21.5834 26.8789 21.5834 28.8121C21.5834 30.7484 23.1559 32.3209 25.0921 32.3209H26.2607H27.4324C28.0769 32.3209 28.6009 32.8451 28.6009 33.4926C28.6009 34.1371 28.0767 34.6612 27.4324 34.6612H25.5762C24.8239 34.6612 24.1147 34.3682 23.5812 33.8317C23.1218 33.3785 22.3818 33.3754 21.9255 33.8347C21.4692 34.291 21.4692 35.031 21.9255 35.4874C22.9029 36.4617 24.1979 36.9982 25.5762 36.9982H27.4324C29.3655 36.9985 30.941 35.426 30.941 33.4928Z" fill="#0068BD"/>
<path d="M34.4478 36.9985H41.4655C42.113 36.9985 42.6341 36.4774 42.6341 35.8299C42.6341 35.1855 42.113 34.6614 41.4655 34.6614H35.6165V32.3212H39.1253C39.7728 32.3212 40.297 31.7969 40.297 31.1526C40.297 30.5051 39.7728 29.9841 39.1253 29.9841H35.6165V27.6438H41.4655C42.113 27.6438 42.6341 27.1196 42.6341 26.4753C42.6341 25.8278 42.113 25.3036 41.4655 25.3036H34.4478C33.8003 25.3036 33.2793 25.8278 33.2793 26.4753V35.8301C33.2793 36.4774 33.8003 36.9985 34.4478 36.9985Z" fill="#0068BD"/>
<path d="M49.6513 36.9991C52.2321 36.9991 54.3318 34.9024 54.3318 32.3217V29.9814C54.3318 27.4037 52.2321 25.304 49.6513 25.304C47.0736 25.304 44.9739 27.4037 44.9739 29.9814V32.3217C44.9739 34.9024 47.0736 36.9991 49.6513 36.9991ZM47.3141 29.9814C47.3141 28.6926 48.3624 27.6442 49.6513 27.6442C50.9433 27.6442 51.9916 28.6925 51.9916 29.9814V32.3217C51.9916 33.6105 50.9433 34.6619 49.6513 34.6619C48.3626 34.6619 47.3141 33.6105 47.3141 32.3217V29.9814Z" fill="#0068BD"/>
</g>
<defs>
<clipPath id="clip0_31_67">
<rect width="74" height="74" fill="white"/>
</clipPath>
</defs>
</svg>
