<svg width="67" height="67" viewBox="0 0 67 67" fill="none" xmlns="http://www.w3.org/2000/svg">
<path d="M23.0858 40.2566H2.61887C1.17488 40.2566 0 41.4313 0 42.8755V63.3426C0 64.7866 1.17488 65.9613 2.61887 65.9613H23.0858C24.5298 65.9613 25.7047 64.7866 25.7047 63.3426V42.8755C25.7047 41.4313 24.5298 40.2566 23.0858 40.2566ZM23.5307 63.3426C23.5307 63.5837 23.327 63.7873 23.0858 63.7873H2.61887C2.37772 63.7873 2.17398 63.5836 2.17398 63.3426V42.8755C2.17398 42.6343 2.37772 42.4306 2.61887 42.4306H23.0858C23.327 42.4306 23.5307 42.6343 23.5307 42.8755V63.3426ZM67 29.5783C67 40.1535 59.094 49.1895 48.6098 50.5973C48.5607 50.6038 48.512 50.6071 48.4638 50.6071C47.9278 50.6071 47.4612 50.2105 47.3879 49.6647C47.3079 49.0696 47.7256 48.5225 48.3205 48.4426C57.7303 47.1792 64.826 39.0693 64.826 29.5783C64.826 20.0871 57.7303 11.9773 48.3205 10.714C47.7256 10.634 47.3079 10.087 47.3879 9.49192C47.4677 8.89687 48.0141 8.47947 48.6098 8.55928C59.094 9.96694 67 19.0033 67 29.5783ZM30.7263 30.083H34.9097C35.51 30.083 35.9967 29.5963 35.9967 28.996V24.8126C35.9967 24.2123 35.51 23.7256 34.9097 23.7256H30.7263C30.126 23.7256 29.6393 24.2123 29.6393 24.8126V28.996C29.6393 29.5963 30.126 30.083 30.7263 30.083ZM31.8133 25.8996H33.8227V27.909H31.8133V25.8996ZM29.6393 45.5269C29.6393 46.1273 30.126 46.6139 30.7263 46.6139H34.9097C35.51 46.6139 35.9967 46.1273 35.9967 45.5269V41.3436C35.9967 40.7432 35.51 40.2566 34.9097 40.2566H30.7263C30.126 40.2566 29.6393 40.7432 29.6393 41.3436V45.5269ZM31.8133 42.4306H33.8227V44.44H31.8133V42.4306ZM18.2441 54.0246L16.0477 52.2789V50.0717C16.0477 49.4713 15.5611 48.9847 14.9607 48.9847H13.9393V46.4608C13.9393 45.8605 13.4526 45.3738 12.8523 45.3738C12.252 45.3738 11.7653 45.8605 11.7653 46.4608V48.9847H10.744C10.1437 48.9847 9.65699 49.4713 9.65699 50.0717V52.2789L7.46033 54.0246C7.20085 54.2308 7.04961 54.5442 7.04961 54.8755V59.7571C7.04961 60.3574 7.53627 60.8441 8.1366 60.8441H17.5675C18.1678 60.8441 18.6545 60.3574 18.6545 59.7571V54.8755C18.6548 54.5442 18.5035 54.2308 18.2441 54.0246ZM16.4808 58.6701H9.22375V55.4001L11.4204 53.6544C11.6799 53.4482 11.8311 53.1348 11.8311 52.8034V51.1586H13.8739V52.8034C13.8739 53.1348 14.0251 53.4482 14.2846 53.6544L16.481 55.4001V58.6701H16.4808ZM45.3139 2.12569V57.0307C45.3139 57.6311 44.8272 58.1177 44.2269 58.1177H29.3023C28.702 58.1177 28.2154 57.6311 28.2154 57.0307C28.2154 56.4304 28.702 55.9437 29.3023 55.9437H43.1399V3.21268H6.096V36.659C6.096 37.2593 5.60934 37.7459 5.00901 37.7459C4.40868 37.7459 3.92202 37.2593 3.92202 36.659V2.12569C3.92202 1.52536 4.40868 1.0387 5.00901 1.0387H44.2269C44.8272 1.0387 45.3139 1.52536 45.3139 2.12569ZM24.6177 30.0931H20.4344C19.834 30.0931 19.3474 30.5797 19.3474 31.18V35.3634C19.3474 35.9637 19.834 36.4504 20.4344 36.4504H24.6177C25.2181 36.4504 25.7047 35.9637 25.7047 35.3634V31.18C25.7047 30.5797 25.2181 30.0931 24.6177 30.0931ZM23.5307 34.2764H21.5214V32.267H23.5307V34.2764ZM51.8312 29.5783C51.8312 27.1153 50.3487 24.9187 48.0545 23.9823C47.4987 23.7554 47.2321 23.1209 47.4588 22.5652C47.6857 22.0094 48.3199 21.7426 48.8761 21.9695C51.9919 23.2411 54.0052 26.2277 54.0052 29.5783C54.0052 32.9289 51.9917 35.9155 48.876 37.1869C48.7416 37.2419 48.6024 37.2678 48.4657 37.2678C48.037 37.2678 47.6307 37.0125 47.4588 36.5913C47.2321 36.0353 47.4987 35.4008 48.0547 35.1741C50.3487 34.2379 51.8312 32.0414 51.8312 29.5783Z" fill="#0068BD"/>
</svg>
