<svg width="66" height="66" viewBox="0 0 66 66" fill="none" xmlns="http://www.w3.org/2000/svg">
<path d="M44.4622 55.381C44.1202 55.1729 43.8222 54.894 43.5854 54.5559C43.476 54.4 43.3836 54.2351 43.307 54.0648H4.44504V15.7602H57.1946V40.7717C58.3207 40.8734 59.2656 41.6131 59.6623 42.6259C60.0136 42.4333 60.4051 42.3143 60.8166 42.278C61.0949 42.2538 61.3714 42.2711 61.6395 42.3241V6.21774C61.6395 4.17517 59.9781 2.51343 57.9357 2.51343H3.70415C1.66174 2.51343 0 4.17517 0 6.21774V54.8058C0 56.8484 1.66174 58.51 3.70415 58.51H44.1246C43.8092 57.8712 43.7344 57.1501 43.92 56.4564C44.027 56.0573 44.2122 55.6933 44.4622 55.381ZM53.1269 8.73369C53.1269 7.97834 53.7393 7.36585 54.4946 7.36585H55.8623C56.6178 7.36585 57.23 7.97818 57.23 8.73369V10.2838C57.23 11.0392 56.6177 11.6515 55.8623 11.6515H54.4946C53.7391 11.6515 53.1269 11.0392 53.1269 10.2838V8.73369ZM46.7671 8.73369C46.7671 7.97834 47.3794 7.36585 48.1348 7.36585H49.5026C50.2581 7.36585 50.8703 7.97818 50.8703 8.73369V10.2838C50.8703 11.0392 50.258 11.6515 49.5026 11.6515H48.1348C47.3794 11.6515 46.7671 11.0392 46.7671 10.2838V8.73369ZM40.4071 8.73369C40.4071 7.97834 41.0196 7.36585 41.7748 7.36585H43.1425C43.898 7.36585 44.5103 7.97818 44.5103 8.73369V10.2838C44.5103 11.0392 43.898 11.6515 43.1425 11.6515H41.7748C41.0196 11.6515 40.4071 11.0392 40.4071 10.2838V8.73369Z" fill="#0068BD"/>
<path d="M65.9912 52.7726L65.5802 50.4417C65.5247 50.1279 65.2257 49.9182 64.9115 49.9735L62.8387 50.3388C62.5899 49.7549 62.2721 49.208 61.8949 48.7074L63.2488 47.0936C63.3472 46.9766 63.3951 46.825 63.3819 46.6724C63.3684 46.5198 63.2948 46.3789 63.1776 46.2804L61.3648 44.759C61.2476 44.6606 61.0956 44.6128 60.9431 44.6262C60.7905 44.6395 60.6497 44.7129 60.5513 44.8302L59.1987 46.4427C58.6434 46.1598 58.0495 45.9417 57.4273 45.7977V43.6929C57.4273 43.3742 57.1687 43.1155 56.85 43.1155H54.483C54.1644 43.1155 53.9057 43.3742 53.9057 43.6929V45.7977C53.2832 45.9415 52.6899 46.1598 52.1343 46.4427L50.7814 44.8303C50.5764 44.5861 50.2124 44.5544 49.968 44.7591L48.1551 46.2804C48.0378 46.3789 47.9644 46.5198 47.9509 46.6724C47.9377 46.825 47.9855 46.9768 48.0839 47.0941L49.4379 48.7075C49.0613 49.208 48.7429 49.7552 48.4941 50.339L46.4214 49.9735C46.108 49.9184 45.8082 50.1279 45.7526 50.4417L45.3418 52.7726C45.3152 52.9233 45.3496 53.0782 45.4372 53.2038C45.5253 53.3294 45.6588 53.4147 45.8097 53.4413L47.884 53.8069C47.9178 54.4495 48.0297 55.0713 48.2098 55.6634L46.3866 56.7156C46.254 56.7918 46.1573 56.9182 46.1176 57.0659C46.0779 57.2138 46.0989 57.3713 46.1752 57.504L47.3586 59.5536C47.4348 59.6862 47.5611 59.7829 47.7089 59.8225C47.7581 59.8357 47.8082 59.8422 47.8584 59.8422C47.9588 59.8422 48.0583 59.8161 48.1469 59.7648L49.9715 58.7113C50.4006 59.171 50.8849 59.5784 51.4143 59.9229L50.6938 61.9022C50.6417 62.0461 50.6484 62.2049 50.7132 62.3437C50.7779 62.4824 50.895 62.5898 51.0388 62.642L53.2624 63.4512C53.3263 63.4745 53.3932 63.4864 53.46 63.4864C53.5433 63.4864 53.6271 63.4684 53.7042 63.4322C53.843 63.3676 53.9501 63.2504 54.0024 63.1064L54.7227 61.1272C55.0315 61.1646 55.3459 61.1839 55.6648 61.1839C55.9837 61.1839 56.298 61.1643 56.6068 61.1272L57.3273 63.1064C57.3795 63.2504 57.487 63.3676 57.6254 63.4322C57.7025 63.4682 57.7859 63.4864 57.8697 63.4864C57.9363 63.4864 58.0033 63.4748 58.0671 63.4512L60.291 62.642C60.4345 62.5898 60.5518 62.4821 60.6164 62.3437C60.6811 62.2049 60.688 62.0461 60.6357 61.9022L59.9152 59.9233C60.4441 59.5787 60.9285 59.171 61.358 58.7116L63.1826 59.7651C63.2711 59.8161 63.3707 59.8425 63.4712 59.8425C63.5212 59.8425 63.5718 59.8357 63.6206 59.8228C63.7685 59.7832 63.8946 59.6862 63.971 59.5539L65.1543 57.504C65.2307 57.3716 65.2516 57.2138 65.212 57.0659C65.1722 56.9185 65.0756 56.7921 64.9429 56.7156L63.1201 55.6637C63.3002 55.0715 63.4118 54.4497 63.4456 53.8072L65.5199 53.4415C65.6708 53.4149 65.8047 53.3296 65.8924 53.204C65.9834 53.0782 66.0178 52.9233 65.9912 52.7726ZM55.6666 56.4764C53.9134 56.4764 52.4918 55.0548 52.4918 53.3014C52.4918 51.5481 53.9136 50.1266 55.6666 50.1266C57.42 50.1266 58.8416 51.5481 58.8416 53.3014C58.8416 55.0548 57.42 56.4764 55.6666 56.4764Z" fill="#0068BD"/>
<path d="M25.8848 36.9933C25.8848 36.2464 25.4471 35.5604 24.7696 35.2457L18.5685 32.3645L24.7697 29.483C25.4471 29.168 25.8848 28.4821 25.8848 27.7356V27.6854C25.8848 27.0238 25.5518 26.4163 24.9945 26.0613C24.6861 25.8643 24.327 25.7601 23.9562 25.7601C23.6768 25.7601 23.3962 25.8216 23.1452 25.9382L13.2313 30.5484C12.5541 30.8634 12.1167 31.5493 12.1167 32.2957V32.4335C12.1167 33.179 12.5539 33.8644 13.2315 34.1809L23.1463 38.7916C23.4027 38.9103 23.6757 38.9705 23.9576 38.9705C24.3251 38.9705 24.6831 38.8661 24.9945 38.6681C25.5521 38.3116 25.885 37.7046 25.885 37.0437L25.8848 36.9933Z" fill="#0068BD"/>
<path d="M35.6666 21.0625C35.305 20.5674 34.7233 20.272 34.1105 20.272H34.0611C33.2197 20.272 32.4819 20.8103 32.2256 21.6104L25.6936 41.8493C25.5077 42.4337 25.6124 43.0773 25.9736 43.5722C26.3352 44.067 26.9169 44.3626 27.5297 44.3626H27.5792C28.4204 44.3626 29.1576 43.8242 29.4137 43.0242L35.9448 22.7868C36.1325 22.2029 36.0284 21.5584 35.6666 21.0625Z" fill="#0068BD"/>
<path d="M48.4081 30.5482L38.494 25.938C38.2438 25.8217 37.9637 25.7603 37.6843 25.7603C37.3137 25.7603 36.9544 25.8641 36.6462 26.0608C36.0879 26.4164 35.7549 27.0237 35.7549 27.6854V27.7356C35.7549 28.4815 36.1923 29.1675 36.8703 29.4837L43.0712 32.3646L36.8702 35.2457C36.1926 35.5604 35.7549 36.2464 35.7549 36.9933V37.0437C35.7549 37.7046 36.0879 38.3114 36.6459 38.6682C36.9561 38.8659 37.3145 38.9704 37.6824 38.9704C37.964 38.9704 38.2367 38.9102 38.4948 38.7911L48.4093 34.1804C49.0862 33.8647 49.5233 33.1791 49.5233 32.4336V32.2958C49.5229 31.5492 49.0855 30.8634 48.4081 30.5482Z" fill="#0068BD"/>
</svg>
